<svg id="Layer_2" data-name="Layer 2" xmlns="http://www.w3.org/2000/svg" width="108" height="29.098" viewBox="0 0 108 29.098">
  <g id="Layer_1" data-name="Layer 1">
    <rect id="Rectangle_2023" data-name="Rectangle 2023" width="3.868" height="5.53" transform="translate(6.068 5.993)" fill="#13110c"/>
    <rect id="Rectangle_2024" data-name="Rectangle 2024" width="3.868" height="5.667" transform="translate(6.068 17.397)" fill="#13110c"/>
    <path id="Path_81" data-name="Path 81" d="M57.57,56.87Z" transform="translate(-51.504 -50.878)"/>
    <rect id="Rectangle_2025" data-name="Rectangle 2025" width="0.105" height="0.001" transform="translate(10.094 19.497)"/>
    <path id="Path_82" data-name="Path 82" d="M72.668,61.309a7.165,7.165,0,0,0-2.219-2.618,8.966,8.966,0,0,0-3.135-1.4,15.267,15.267,0,0,0-3.57-.421H57.57a3.763,3.763,0,0,0,3.712,3.515h2.364a8.8,8.8,0,0,1,2.062.241,5.04,5.04,0,0,1,1.785.808,4.054,4.054,0,0,1,1.255,1.519,6.332,6.332,0,0,1,0,4.788,4.129,4.129,0,0,1-1.255,1.544,5.046,5.046,0,0,1-1.808.831,8.832,8.832,0,0,1-2.135.254H61.139a3.569,3.569,0,0,0-3.569,3.569h6.367a12.455,12.455,0,0,0,3.477-.494A9.146,9.146,0,0,0,70.49,71.9a7.791,7.791,0,0,0,2.193-2.672,8.386,8.386,0,0,0,.832-3.87A8.8,8.8,0,0,0,72.668,61.309Z" transform="translate(-51.504 -50.878)" fill="#e30613"/>
    <path id="Path_83" data-name="Path 83" d="M61.7,120.182l.025-3.215h-.019l-1.18,3.215h-.77l-1.148-3.215h-.019l.025,3.215H57.58V115.64h1.56l1.035,2.912H60.2l.989-2.912h1.587v4.542Z" transform="translate(-51.513 -103.455)" fill="#13110c"/>
    <path id="Path_84" data-name="Path 84" d="M118.152,120.182l-.986-1.8h-.374v1.8H115.72V115.64h1.732a2.985,2.985,0,0,1,.639.067,1.675,1.675,0,0,1,.558.228,1.2,1.2,0,0,1,.394.421,1.313,1.313,0,0,1,.148.654,1.211,1.211,0,0,1-.25.777,1.362,1.362,0,0,1-.693.449l1.19,1.946Zm-.045-3.15a.451.451,0,0,0-.067-.259.461.461,0,0,0-.174-.154.769.769,0,0,0-.238-.075,1.807,1.807,0,0,0-.255-.019h-.587v1.054h.527a1.8,1.8,0,0,0,.277-.022.914.914,0,0,0,.258-.081.465.465,0,0,0,.263-.449Z" transform="translate(-103.527 -103.455)" fill="#13110c"/>
    <path id="Path_85" data-name="Path 85" d="M232.92,71.679V54h4.295V71.679Z" transform="translate(-208.378 -48.31)" fill="#13110c"/>
    <path id="Path_86" data-name="Path 86" d="M313.954,67.643a15.936,15.936,0,0,1-3.783.421,10.984,10.984,0,0,1-3.907-.674,9.027,9.027,0,0,1-3.071-1.9,8.64,8.64,0,0,1-2.009-2.933,10.384,10.384,0,0,1,.014-7.653,8.542,8.542,0,0,1,2.035-2.933,9.015,9.015,0,0,1,3.046-1.861,10.755,10.755,0,0,1,3.77-.649,11.578,11.578,0,0,1,3.9.632,7.965,7.965,0,0,1,2.922,1.71l-2.7,3.07a4.672,4.672,0,0,0-1.648-1.185,5.6,5.6,0,0,0-2.318-.463,5.163,5.163,0,0,0-2.073.412,5.014,5.014,0,0,0-1.648,1.148,5.211,5.211,0,0,0-1.085,1.748,6.112,6.112,0,0,0-.388,2.213,6.924,6.924,0,0,0,.34,2.255,4.824,4.824,0,0,0,1.036,1.76,4.7,4.7,0,0,0,1.7,1.148,6.072,6.072,0,0,0,2.31.412,8.658,8.658,0,0,0,1.422-.112,5.306,5.306,0,0,0,1.249-.364V60.63H309.7V57.185h7.29v9.363A13.519,13.519,0,0,1,313.954,67.643Z" transform="translate(-268.802 -44.252)" fill="#13110c"/>
    <path id="Path_87" data-name="Path 87" d="M490.5,71.679V54h4.294V71.679Z" transform="translate(-438.818 -48.31)" fill="#13110c"/>
    <path id="Path_88" data-name="Path 88" d="M559,57.648V71.679h-4.271V57.648H549.74V54h14.252v3.648Z" transform="translate(-491.816 -48.31)" fill="#13110c"/>
    <path id="Path_89" data-name="Path 89" d="M682.842,71.679l-1.37-3.471h-6.84l-1.3,3.471H668.69L676.1,54h4.145l7.341,17.676ZM678.1,58.719l-2.247,6.067H680.3Z" transform="translate(-598.233 -48.31)" fill="#13110c"/>
    <path id="Path_90" data-name="Path 90" d="M862,71.679V54h4.3V67.96h6.84v3.719Z" transform="translate(-771.175 -48.31)" fill="#13110c"/>
    <path id="Path_91" data-name="Path 91" d="M0,0V29.1H108V0ZM106.63,27.727H1.37V1.37H106.63Z" fill="#13110c"/>
  </g>
</svg>